<?xml version="1.0" encoding="UTF-8" standalone="no"?>
<!DOCTYPE svg PUBLIC "-//W3C//DTD SVG 1.1//EN" "http://www.w3.org/Graphics/SVG/1.1/DTD/svg11.dtd">
<svg width="100%" height="100%" viewBox="0 0 3180 3180" version="1.1" xmlns="http://www.w3.org/2000/svg" xmlns:xlink="http://www.w3.org/1999/xlink" xml:space="preserve" xmlns:serif="http://www.serif.com/" style="fill-rule:evenodd;clip-rule:evenodd;stroke-linejoin:round;stroke-miterlimit:2;">
    <g transform="matrix(4.16667,0,0,4.16667,0,0)">
        <g transform="matrix(2.66514,0,0,3.42036,170.825,40.4235)">
            <rect x="-64.181" y="-11.818" width="286.373" height="223.076" style="fill:#fff;"/>
        </g>
        <g transform="matrix(0.819584,0,0,1.00086,78.3846,-20.6752)">
            <rect x="-183.905" y="-49.775" width="1107.49" height="903.209"/>
        </g>
        <g transform="matrix(8.95807,0,0,8.95807,-20.6239,-22.1542)">
            <g transform="matrix(1,0,0,1,-77,-59)">
                <path d="M122,130.6C121.7,130.6 121.5,130.6 121.2,130.4L96.5,116.7C96,116.4 95.7,115.9 95.7,115.3C95.7,114.7 96,114.2 96.5,113.9L106.2,108.5C107,108.1 107.9,108.4 108.3,109.1C108.7,109.9 108.4,110.8 107.7,111.2L100.4,115.3L121.9,127.3L143.4,115.3L136.1,111.2C135.3,110.8 135.1,109.8 135.5,109.1C135.9,108.3 136.9,108.1 137.6,108.5L147.3,113.9C147.8,114.2 148.1,114.7 148.1,115.3C148.1,115.9 147.8,116.4 147.3,116.7L122.6,130.4C122.4,130.5 122.1,130.6 121.8,130.6L122,130.6Z" style="fill:#e00;fill-rule:nonzero;"/>
            </g>
            <g transform="matrix(1,0,0,1,-77,-59)">
                <path d="M122,108.1C121.7,108.1 121.5,108.1 121.2,107.9L96.5,94.2C96,93.9 95.7,93.4 95.7,92.8C95.7,92.2 96,91.7 96.5,91.4L121.2,77.7C122,77.3 122.9,77.6 123.3,78.3C123.7,79.1 123.4,80 122.7,80.4L100.4,92.8L121.9,104.8L145.9,91.5C146.7,91.1 147.6,91.4 148,92.1C148.4,92.9 148.1,93.8 147.4,94.2L122.7,107.9C122.5,108 122.2,108.1 121.9,108.1L122,108.1Z" style="fill:#e00;fill-rule:nonzero;"/>
            </g>
            <g transform="matrix(1,0,0,1,-77,-59)">
                <path d="M110.1,101.3C109.6,101.3 109,101 108.7,100.5C108.3,99.7 108.6,98.8 109.3,98.4L126.2,89C127,88.6 127.9,88.9 128.3,89.6C128.7,90.4 128.4,91.3 127.7,91.7L110.8,101.1C110.6,101.2 110.3,101.3 110,101.3L110.1,101.3Z" style="fill:#e00;fill-rule:nonzero;"/>
            </g>
            <g transform="matrix(1,0,0,1,-77,-59)">
                <path d="M122,119.4C121.7,119.4 121.5,119.4 121.2,119.2L96.2,105.3C95.4,104.9 95.2,103.9 95.6,103.2C96,102.4 97,102.2 97.7,102.6L121.9,116.1L146.1,102.6C146.9,102.2 147.8,102.5 148.2,103.2C148.6,104 148.3,104.9 147.6,105.3L122.6,119.2C122.4,119.3 122.1,119.4 121.8,119.4L122,119.4Z" style="fill:#fff;fill-rule:nonzero;"/>
            </g>
        </g>
    </g>
</svg>
