<?xml version="1.0" encoding="UTF-8" standalone="no"?>
<!DOCTYPE svg PUBLIC "-//W3C//DTD SVG 1.1//EN" "http://www.w3.org/Graphics/SVG/1.1/DTD/svg11.dtd">
<svg width="100%" height="100%" viewBox="0 0 13250 13250" version="1.1" xmlns="http://www.w3.org/2000/svg" xmlns:xlink="http://www.w3.org/1999/xlink" xml:space="preserve" xmlns:serif="http://www.serif.com/" style="fill-rule:evenodd;clip-rule:evenodd;stroke-linejoin:round;stroke-miterlimit:2;">
    <g transform="matrix(4.16667,0,0,4.16667,0,0)">
        <g transform="matrix(4.16667,0,0,4.16667,0,0)">
            <rect x="-134.831" y="-61.029" width="1017.36" height="894.777" style="fill:#fff;"/>
            <g transform="matrix(14.0531,0,0,14.0531,-28.5,-28.5)">
                <g transform="matrix(1,0,0,1,-172.31,-40.4)">
                    <path d="M201.49,81.94C200.941,81.94 200.49,81.489 200.49,80.94L200.49,68C200.49,67.451 200.941,67 201.49,67C202.039,67 202.49,67.451 202.49,68L202.49,81C202.458,81.526 202.017,81.941 201.49,81.94Z" style="fill:#e00;fill-rule:nonzero;"/>
                </g>
                <g transform="matrix(1,0,0,1,-172.31,-40.4)">
                    <path d="M208,75.45L195,75.45C194.451,75.45 194,74.999 194,74.45C194,73.901 194.451,73.45 195,73.45L208,73.45C208.549,73.45 209,73.901 209,74.45C209,74.999 208.549,75.45 208,75.45Z" style="fill:#e00;fill-rule:nonzero;"/>
                </g>
                <g transform="matrix(1,0,0,1,-172.31,-40.4)">
                    <path d="M196.9,80C196.888,80 196.875,80.001 196.863,80.001C196.314,80.001 195.863,79.549 195.863,79.001C195.863,78.724 195.978,78.459 196.18,78.27L205.35,69.1C205.54,68.908 205.8,68.8 206.07,68.8C206.627,68.8 207.085,69.258 207.085,69.815C207.085,70.083 206.979,70.34 206.79,70.53L197.62,79.7C197.431,79.893 197.171,80.002 196.9,80Z" style="fill:#e00;fill-rule:nonzero;"/>
                </g>
                <g transform="matrix(1,0,0,1,-172.31,-40.4)">
                    <path d="M206.07,80C205.799,80.002 205.539,79.893 205.35,79.7L196.18,70.53C195.991,70.34 195.885,70.083 195.885,69.815C195.885,69.258 196.343,68.8 196.9,68.8C197.17,68.8 197.43,68.908 197.62,69.1L206.79,78.27C206.992,78.459 207.107,78.724 207.107,79.001C207.107,79.549 206.656,80.001 206.107,80.001C206.095,80.001 206.082,80 206.07,80Z" style="fill:#e00;fill-rule:nonzero;"/>
                </g>
                <g transform="matrix(1,0,0,1,-172.31,-40.4)">
                    <circle cx="201.49" cy="74.44" r="4.32" style="fill:#fff;"/>
                </g>
                <g transform="matrix(1,0,0,1,-172.31,-40.4)">
                    <path d="M201.49,79.77L201.48,79.77C198.551,79.77 196.14,77.359 196.14,74.43C196.14,71.501 198.551,69.09 201.48,69.09C204.409,69.09 206.82,71.501 206.82,74.43L206.82,74.44C206.815,77.362 204.412,79.765 201.49,79.77ZM201.49,71.13C199.674,71.13 198.18,72.624 198.18,74.44C198.18,76.256 199.674,77.75 201.49,77.75C203.306,77.75 204.8,76.256 204.8,74.44C204.8,72.624 203.306,71.13 201.49,71.13Z" style="fill:#e00;fill-rule:nonzero;"/>
                </g>
                <g transform="matrix(1,0,0,1,-172.31,-40.4)">
                    <path d="M212.83,86.8L190.14,86.8C189.591,86.8 189.14,86.349 189.14,85.8L189.14,63.09C189.14,62.541 189.591,62.09 190.14,62.09L212.83,62.09C213.379,62.09 213.83,62.541 213.83,63.09L213.83,85.8C213.83,86.349 213.379,86.8 212.83,86.8ZM191.15,84.8L211.82,84.8L211.82,64.11L191.15,64.11L191.15,84.8Z" style="fill-rule:nonzero;"/>
                </g>
                <g transform="matrix(1,0,0,1,-172.31,-40.4)">
                    <path d="M211.21,60.86C210.661,60.86 210.21,60.409 210.21,59.86L210.21,59.25L192.77,59.25L192.77,59.86C192.77,60.409 192.319,60.86 191.77,60.86C191.221,60.86 190.77,60.409 190.77,59.86L190.77,58.23C190.77,57.681 191.221,57.23 191.77,57.23L211.22,57.23C211.769,57.23 212.22,57.681 212.22,58.23L212.22,59.86C212.22,60.409 211.769,60.86 211.22,60.86L211.21,60.86Z" style="fill-rule:nonzero;"/>
                </g>
                <g transform="matrix(1,0,0,1,-172.31,-40.4)">
                    <path d="M209.59,56C209.041,56 208.59,55.549 208.59,55L208.59,54.39L194.39,54.39L194.39,55C194.39,55.549 193.939,56 193.39,56C192.841,56 192.39,55.549 192.39,55L192.39,53.37C192.39,52.821 192.841,52.37 193.39,52.37L209.6,52.37C210.149,52.37 210.6,52.821 210.6,53.37L210.6,55C210.6,55.549 210.149,56 209.6,56L209.59,56Z" style="fill-rule:nonzero;"/>
                </g>
            </g>
        </g>
    </g>
</svg>
