<?xml version="1.0" encoding="UTF-8" standalone="no"?>
<!DOCTYPE svg PUBLIC "-//W3C//DTD SVG 1.1//EN" "http://www.w3.org/Graphics/SVG/1.1/DTD/svg11.dtd">
<svg width="100%" height="100%" viewBox="0 0 13250 13250" version="1.1" xmlns="http://www.w3.org/2000/svg" xmlns:xlink="http://www.w3.org/1999/xlink" xml:space="preserve" xmlns:serif="http://www.serif.com/" style="fill-rule:evenodd;clip-rule:evenodd;stroke-linejoin:round;stroke-miterlimit:2;">
    <g transform="matrix(4.16667,0,0,4.16667,0,0)">
        <g transform="matrix(4.16667,0,0,4.16667,0,0)">
            <rect x="-134.831" y="-61.029" width="1017.36" height="894.777" style="fill:#fff;"/>
            <g transform="matrix(14.098,0,0,14.098,-30.0917,-18.4679)">
                <g transform="matrix(1,0,0,1,-172.31,-129.25)">
                    <path d="M216.07,161.06L211.21,161.06C210.661,161.06 210.21,160.609 210.21,160.06C210.21,159.511 210.661,159.06 211.21,159.06L216.07,159.06C216.619,159.06 217.07,159.511 217.07,160.06C217.07,160.609 216.619,161.06 216.07,161.06Z" style="fill-rule:nonzero;"/>
                </g>
                <g transform="matrix(1,0,0,1,-172.31,-129.25)">
                    <path d="M191.76,161.06L186.9,161.06C186.351,161.06 185.9,160.609 185.9,160.06C185.9,159.511 186.351,159.06 186.9,159.06L191.76,159.06C192.309,159.06 192.76,159.511 192.76,160.06C192.76,160.609 192.309,161.06 191.76,161.06Z" style="fill-rule:nonzero;"/>
                </g>
                <g transform="matrix(1,0,0,1,-172.31,-129.25)">
                    <path d="M206.35,149.71C205.801,149.71 205.35,149.259 205.35,148.71L205.35,144.86L197.65,144.86L197.65,148.71C197.65,149.259 197.199,149.71 196.65,149.71C196.101,149.71 195.65,149.259 195.65,148.71L195.65,143.84C195.65,143.291 196.101,142.84 196.65,142.84L206.38,142.84C206.929,142.84 207.38,143.291 207.38,143.84L207.38,148.71C207.38,149.259 206.929,149.71 206.38,149.71L206.35,149.71Z" style="fill-rule:nonzero;"/>
                </g>
                <g transform="matrix(1,0,0,1,-172.31,-129.25)">
                    <path d="M216.07,172.4L186.9,172.4C186.351,172.4 185.9,171.949 185.9,171.4L185.9,151.94C185.898,151.669 186.007,151.409 186.2,151.22L189.44,147.98C189.629,147.787 189.889,147.678 190.16,147.68L212.85,147.68C213.121,147.678 213.381,147.787 213.57,147.98L216.81,151.22C217.003,151.409 217.112,151.669 217.11,151.94L217.11,171.401C217.11,171.949 216.659,172.401 216.11,172.401C216.097,172.401 216.083,172.401 216.07,172.4ZM187.91,170.4L215.06,170.4L215.06,152.4L212.41,149.75L190.56,149.75L187.91,152.4L187.91,170.4Z" style="fill:#e00;fill-rule:nonzero;"/>
                </g>
                <g transform="matrix(1,0,0,1,-172.31,-129.25)">
                    <path d="M201.49,167.54C200.941,167.54 200.49,167.089 200.49,166.54L200.49,153.54C200.49,152.991 200.941,152.54 201.49,152.54C202.039,152.54 202.49,152.991 202.49,153.54L202.49,166.54C202.49,167.089 202.039,167.54 201.49,167.54Z" style="fill:#ed1c24;fill-rule:nonzero;"/>
                </g>
                <g transform="matrix(1,0,0,1,-172.31,-129.25)">
                    <path d="M208,161.06L195,161.06C194.451,161.06 194,160.609 194,160.06C194,159.511 194.451,159.06 195,159.06L208,159.06C208.549,159.06 209,159.511 209,160.06C209,160.609 208.549,161.06 208,161.06Z" style="fill:#ed1c24;fill-rule:nonzero;"/>
                </g>
                <g transform="matrix(1,0,0,1,-172.31,-129.25)">
                    <path d="M196.9,165.64C196.631,165.644 196.371,165.54 196.18,165.35C195.985,165.162 195.874,164.901 195.874,164.63C195.874,164.359 195.985,164.098 196.18,163.91L205.35,154.74C205.541,154.549 205.8,154.442 206.07,154.442C206.629,154.442 207.088,154.901 207.088,155.46C207.088,155.73 206.981,155.989 206.79,156.18L197.62,165.35C197.429,165.54 197.169,165.644 196.9,165.64Z" style="fill:#ed1c24;fill-rule:nonzero;"/>
                </g>
                <g transform="matrix(1,0,0,1,-172.31,-129.25)">
                    <path d="M206.07,165.64C205.801,165.644 205.541,165.54 205.35,165.35L196.18,156.18C195.989,155.989 195.882,155.73 195.882,155.46C195.882,154.901 196.341,154.442 196.9,154.442C197.17,154.442 197.429,154.549 197.62,154.74L206.79,163.91C206.985,164.098 207.096,164.359 207.096,164.63C207.096,164.901 206.985,165.162 206.79,165.35C206.599,165.54 206.339,165.644 206.07,165.64Z" style="fill:#ed1c24;fill-rule:nonzero;"/>
                </g>
                <g transform="matrix(1,0,0,1,-172.31,-129.25)">
                    <circle cx="201.49" cy="160.04" r="4.32" style="fill:#fff;"/>
                </g>
                <g transform="matrix(1,0,0,1,-172.31,-129.25)">
                    <path d="M201.49,165.38L201.48,165.38C198.551,165.38 196.14,162.969 196.14,160.04C196.14,157.111 198.551,154.7 201.48,154.7C204.409,154.7 206.82,157.111 206.82,160.04C206.82,162.966 204.416,165.375 201.49,165.38ZM201.49,156.74C199.674,156.74 198.18,158.234 198.18,160.05C198.18,161.866 199.674,163.36 201.49,163.36C203.306,163.36 204.8,161.866 204.8,160.05L204.8,160.04C204.795,158.228 203.302,156.74 201.49,156.74Z" style="fill:#ed1c24;fill-rule:nonzero;"/>
                </g>
            </g>
        </g>
    </g>
</svg>
