<?xml version="1.0" encoding="UTF-8" standalone="no"?>
<!DOCTYPE svg PUBLIC "-//W3C//DTD SVG 1.1//EN" "http://www.w3.org/Graphics/SVG/1.1/DTD/svg11.dtd">
<svg width="100%" height="100%" viewBox="0 0 3180 3180" version="1.1" xmlns="http://www.w3.org/2000/svg" xmlns:xlink="http://www.w3.org/1999/xlink" xml:space="preserve" xmlns:serif="http://www.serif.com/" style="fill-rule:evenodd;clip-rule:evenodd;stroke-linejoin:round;stroke-miterlimit:2;">
    <g transform="matrix(4.16667,0,0,4.16667,0,0)">
        <g transform="matrix(2.66514,0,0,3.42036,170.825,40.4235)">
            <rect x="-64.181" y="-11.818" width="286.373" height="223.076" style="fill:#fff;"/>
        </g>
        <g transform="matrix(14.8877,0,0,14.8877,-53.4357,-52.896)">
            <g transform="matrix(1,0,0,1,-83.28,-129.25)">
                <path d="M126.5,159.44C125.951,159.44 125.5,158.989 125.5,158.44L125.5,150.9L112.5,143.38L99.5,150.9L99.5,153.56C99.5,154.109 99.049,154.56 98.5,154.56C97.951,154.56 97.5,154.109 97.5,153.56L97.5,150.32C97.497,149.956 97.693,149.618 98.01,149.44L112.01,141.34C112.319,141.162 112.701,141.162 113.01,141.34L127.01,149.44C127.327,149.618 127.523,149.956 127.52,150.32L127.52,158.44C127.52,158.989 127.069,159.44 126.52,159.44L126.5,159.44Z" style="fill-rule:nonzero;"/>
            </g>
            <g transform="matrix(1,0,0,1,-83.28,-129.25)">
                <path d="M112.46,175.65C112.281,175.647 112.105,175.599 111.95,175.51L97.95,167.41C97.633,167.232 97.437,166.894 97.44,166.53L97.44,158.42C97.44,157.871 97.891,157.42 98.44,157.42C98.989,157.42 99.44,157.871 99.44,158.42L99.44,165.94L112.44,173.46L125.44,165.94L125.44,163.29C125.44,162.741 125.891,162.29 126.44,162.29C126.989,162.29 127.44,162.741 127.44,163.29L127.44,166.53C127.443,166.894 127.247,167.232 126.93,167.41L112.93,175.51C112.786,175.593 112.625,175.641 112.46,175.65Z" style="fill-rule:nonzero;"/>
            </g>
            <g transform="matrix(1,0,0,1,-83.28,-129.25)">
                <path d="M126.5,159.44C126.229,159.442 125.969,159.333 125.78,159.14L122.54,155.9C122.348,155.71 122.24,155.45 122.24,155.18C122.24,154.623 122.698,154.165 123.255,154.165C123.523,154.165 123.78,154.271 123.97,154.46L126.5,157L129.02,154.47C129.211,154.279 129.47,154.172 129.74,154.172C130.299,154.172 130.758,154.631 130.758,155.19C130.758,155.46 130.651,155.719 130.46,155.91L127.21,159.15C127.021,159.337 126.766,159.442 126.5,159.44Z" style="fill-rule:nonzero;"/>
            </g>
            <g transform="matrix(1,0,0,1,-83.28,-129.25)">
                <path d="M101.66,162.68C101.393,162.679 101.137,162.571 100.95,162.38L98.42,159.86L95.9,162.38C95.716,162.545 95.478,162.636 95.231,162.636C94.683,162.636 94.231,162.185 94.231,161.636C94.231,161.404 94.312,161.179 94.46,161L97.7,157.76C97.888,157.565 98.149,157.454 98.42,157.454C98.691,157.454 98.952,157.565 99.14,157.76L102.38,161C102.582,161.189 102.697,161.454 102.697,161.731C102.697,162.279 102.246,162.731 101.697,162.731C101.685,162.731 101.672,162.73 101.66,162.73L101.66,162.68Z" style="fill-rule:nonzero;"/>
            </g>
            <g transform="matrix(1,0,0,1,-83.28,-129.25)">
                <path d="M112.46,165.92C111.911,165.92 111.46,165.469 111.46,164.92L111.46,151.92C111.46,151.371 111.911,150.92 112.46,150.92C113.009,150.92 113.46,151.371 113.46,151.92L113.46,164.92C113.46,165.469 113.009,165.92 112.46,165.92Z" style="fill:#e00;fill-rule:nonzero;"/>
            </g>
            <g transform="matrix(1,0,0,1,-83.28,-129.25)">
                <path d="M119,159.44L106,159.44C105.451,159.44 105,158.989 105,158.44C105,157.891 105.451,157.44 106,157.44L119,157.44C119.549,157.44 120,157.891 120,158.44C120,158.989 119.549,159.44 119,159.44Z" style="fill:#e00;fill-rule:nonzero;"/>
            </g>
            <g transform="matrix(1,0,0,1,-83.28,-129.25)">
                <path d="M107.88,164C107.611,164.004 107.351,163.9 107.16,163.71C106.965,163.522 106.854,163.261 106.854,162.99C106.854,162.719 106.965,162.458 107.16,162.27L116.33,153.1C116.518,152.908 116.776,152.799 117.045,152.799C117.314,152.799 117.572,152.908 117.76,153.1C117.955,153.288 118.066,153.549 118.066,153.82C118.066,154.091 117.955,154.352 117.76,154.54L108.59,163.71C108.401,163.897 108.146,164.002 107.88,164Z" style="fill:#e00;fill-rule:nonzero;"/>
            </g>
            <g transform="matrix(1,0,0,1,-83.28,-129.25)">
                <path d="M117,164C116.734,164.002 116.479,163.897 116.29,163.71L107.12,154.54C106.928,154.35 106.82,154.09 106.82,153.82C106.82,153.263 107.278,152.805 107.835,152.805C108.103,152.805 108.36,152.911 108.55,153.1L117.72,162.27C117.915,162.458 118.026,162.719 118.026,162.99C118.026,163.261 117.915,163.522 117.72,163.71C117.529,163.9 117.269,164.004 117,164Z" style="fill:#e00;fill-rule:nonzero;"/>
            </g>
            <g transform="matrix(1,0,0,1,-83.28,-129.25)">
                <circle cx="112.46" cy="158.42" r="4.32" style="fill:#fff;"/>
            </g>
            <g transform="matrix(1,0,0,1,-83.28,-129.25)">
                <path d="M112.46,163.76C109.531,163.76 107.12,161.349 107.12,158.42C107.12,155.491 109.531,153.08 112.46,153.08C115.389,153.08 117.8,155.491 117.8,158.42C117.795,161.347 115.387,163.755 112.46,163.76ZM112.46,155.11C110.644,155.11 109.15,156.604 109.15,158.42C109.15,160.236 110.644,161.73 112.46,161.73C114.276,161.73 115.77,160.236 115.77,158.42C115.77,156.604 114.276,155.11 112.46,155.11Z" style="fill:#e00;fill-rule:nonzero;"/>
            </g>
        </g>
    </g>
</svg>
