<?xml version="1.0" encoding="UTF-8" standalone="no"?>
<!DOCTYPE svg PUBLIC "-//W3C//DTD SVG 1.1//EN" "http://www.w3.org/Graphics/SVG/1.1/DTD/svg11.dtd">
<svg width="100%" height="100%" viewBox="0 0 3180 3180" version="1.1" xmlns="http://www.w3.org/2000/svg" xmlns:xlink="http://www.w3.org/1999/xlink" xml:space="preserve" xmlns:serif="http://www.serif.com/" style="fill-rule:evenodd;clip-rule:evenodd;stroke-linejoin:round;stroke-miterlimit:2;">
    <g transform="matrix(4.16667,0,0,4.16667,0,0)">
        <g transform="matrix(2.66514,0,0,3.42036,170.825,40.4235)">
            <rect x="-64.181" y="-11.818" width="286.373" height="223.076" style="fill:#fff;"/>
        </g>
        <g transform="matrix(8.28352,0,0,8.28352,-1.62547,-11.1386)">
            <g transform="matrix(1,0,0,1,-614.6,-59)">
                <path d="M669.6,125.6C669.3,125.6 669.1,125.6 668.8,125.4L660.1,120.4C659.6,120.1 659.3,119.6 659.3,119L659.3,109C659.3,108.4 659.6,107.9 660.1,107.6L668.8,102.6C669.3,102.3 669.9,102.3 670.4,102.6L679.1,107.6C679.6,107.9 679.9,108.4 679.9,109L679.9,119C679.9,119.6 679.6,120.1 679.1,120.4L670.4,125.4C670.2,125.5 669.9,125.6 669.6,125.6ZM662.5,118.1L669.6,122.2L676.7,118.1L676.7,109.9L669.6,105.8L662.5,109.9L662.5,118.1Z" style="fill-rule:nonzero;"/>
            </g>
            <g transform="matrix(1,0,0,1,-614.6,-59)">
                <path d="M649.6,115.6L637.1,115.6C636.2,115.6 635.5,114.9 635.5,114L635.5,81.5C635.5,80.6 636.2,79.9 637.1,79.9L669.6,79.9C670.5,79.9 671.2,80.6 671.2,81.5L671.2,94C671.2,94.9 670.5,95.6 669.6,95.6C668.7,95.6 668,94.9 668,94L668,83.1L638.6,83.1L638.6,112.5L649.5,112.5C650.4,112.5 651.1,113.2 651.1,114.1C651.1,115 650.4,115.7 649.5,115.7L649.6,115.6Z" style="fill-rule:nonzero;"/>
            </g>
            <g transform="matrix(1,0,0,1,-614.6,-59)">
                <path d="M659.6,132.9C659.3,132.9 659.1,132.9 658.8,132.7C652.2,128.9 648,121.7 648,114C648,102.1 657.7,92.4 669.6,92.4C681.5,92.4 681.7,95.1 685.8,99.7C686.4,100.3 686.3,101.3 685.7,101.9C685.1,102.5 684.1,102.4 683.5,101.8C680,97.8 675,95.6 669.7,95.6C659.5,95.6 651.3,103.9 651.3,114C651.3,124.1 654.8,126.7 660.5,130C661.2,130.4 661.5,131.4 661.1,132.1C660.8,132.6 660.3,132.9 659.7,132.9L659.6,132.9Z" style="fill:#e00;fill-rule:nonzero;"/>
            </g>
        </g>
    </g>
</svg>
