<?xml version="1.0" encoding="UTF-8" standalone="no"?>
<!DOCTYPE svg PUBLIC "-//W3C//DTD SVG 1.1//EN" "http://www.w3.org/Graphics/SVG/1.1/DTD/svg11.dtd">
<svg width="100%" height="100%" viewBox="0 0 3180 3180" version="1.1" xmlns="http://www.w3.org/2000/svg" xmlns:xlink="http://www.w3.org/1999/xlink" xml:space="preserve" xmlns:serif="http://www.serif.com/" style="fill-rule:evenodd;clip-rule:evenodd;stroke-linejoin:round;stroke-miterlimit:2;">
    <g transform="matrix(4.16667,0,0,4.16667,0,0)">
        <rect x="-134.831" y="-61.029" width="1017.36" height="894.777" style="fill:#fff;"/>
        <g transform="matrix(9.44444,0,0,9.44444,-43.5,-43.5)">
            <g transform="matrix(1,0,0,1,-793.8,-59)">
                <path d="M861.3,120.6L818.8,120.6C817.9,120.6 817.2,119.9 817.2,119L817.2,109C817.2,108.1 817.9,107.4 818.8,107.4C819.7,107.4 820.4,108.1 820.4,109L820.4,117.4L859.8,117.4L859.8,90.5L833.9,90.5C833,90.5 832.3,89.8 832.3,88.9C832.3,88 833,87.3 833.9,87.3L861.4,87.3C862.3,87.3 863,88 863,88.9L863,118.9C863,119.8 862.3,120.5 861.4,120.5L861.3,120.6Z" style="fill-rule:nonzero;"/>
            </g>
            <g transform="matrix(1,0,0,1,-793.8,-59)">
                <path d="M853.8,98.1L851.3,98.1C850.4,98.1 849.7,97.4 849.7,96.5C849.7,95.6 850.4,94.9 851.3,94.9L853.8,94.9C854.7,94.9 855.4,95.6 855.4,96.5C855.4,97.4 854.7,98.1 853.8,98.1Z" style="fill-rule:nonzero;"/>
            </g>
            <g transform="matrix(1,0,0,1,-793.8,-59)">
                <path d="M843.8,98.1L836.3,98.1C835.4,98.1 834.7,97.4 834.7,96.5C834.7,95.6 835.4,94.9 836.3,94.9L843.8,94.9C844.7,94.9 845.4,95.6 845.4,96.5C845.4,97.4 844.7,98.1 843.8,98.1Z" style="fill:#e00;fill-rule:nonzero;"/>
            </g>
            <g transform="matrix(1,0,0,1,-793.8,-59)">
                <path d="M853.8,105.6L843.8,105.6C842.9,105.6 842.2,104.9 842.2,104C842.2,103.1 842.9,102.4 843.8,102.4L853.8,102.4C854.7,102.4 855.4,103.1 855.4,104C855.4,104.9 854.7,105.6 853.8,105.6Z" style="fill:#e00;fill-rule:nonzero;"/>
            </g>
            <g transform="matrix(1,0,0,1,-793.8,-59)">
                <path d="M836.3,105.6L833.8,105.6C832.9,105.6 832.2,104.9 832.2,104C832.2,103.1 832.9,102.4 833.8,102.4L836.3,102.4C837.2,102.4 837.9,103.1 837.9,104C837.9,104.9 837.2,105.6 836.3,105.6Z" style="fill-rule:nonzero;"/>
            </g>
            <g transform="matrix(1,0,0,1,-793.8,-59)">
                <path d="M853.8,113.1L851.3,113.1C850.4,113.1 849.7,112.4 849.7,111.5C849.7,110.6 850.4,109.9 851.3,109.9L853.8,109.9C854.7,109.9 855.4,110.6 855.4,111.5C855.4,112.4 854.7,113.1 853.8,113.1Z" style="fill-rule:nonzero;"/>
            </g>
            <g transform="matrix(1,0,0,1,-793.8,-59)">
                <path d="M843.8,113.1L836.3,113.1C835.4,113.1 834.7,112.4 834.7,111.5C834.7,110.6 835.4,109.9 836.3,109.9L843.8,109.9C844.7,109.9 845.4,110.6 845.4,111.5C845.4,112.4 844.7,113.1 843.8,113.1Z" style="fill:#e00;fill-rule:nonzero;"/>
            </g>
            <g transform="matrix(1,0,0,1,-793.8,-59)">
                <path d="M828.8,113.1L826.3,113.1C825.4,113.1 824.7,112.4 824.7,111.5C824.7,110.6 825.4,109.9 826.3,109.9L828.8,109.9C829.7,109.9 830.4,110.6 830.4,111.5C830.4,112.4 829.7,113.1 828.8,113.1Z" style="fill-rule:nonzero;"/>
            </g>
            <g transform="matrix(1,0,0,1,-793.8,-59)">
                <path d="M821.3,105.6C820.4,105.6 819.7,104.9 819.7,104L819.7,84C819.7,83.1 820.4,82.4 821.3,82.4C822.2,82.4 822.9,83.1 822.9,84L822.9,104C822.9,104.9 822.2,105.6 821.3,105.6Z" style="fill:#e00;fill-rule:nonzero;"/>
            </g>
            <g transform="matrix(1,0,0,1,-793.8,-59)">
                <path d="M831.3,95.6L811.3,95.6C810.4,95.6 809.7,94.9 809.7,94C809.7,93.1 810.4,92.4 811.3,92.4L831.3,92.4C832.2,92.4 832.9,93.1 832.9,94C832.9,94.9 832.2,95.6 831.3,95.6Z" style="fill:#e00;fill-rule:nonzero;"/>
            </g>
            <g transform="matrix(1,0,0,1,-793.8,-59)">
                <path d="M828.4,102.6C828,102.6 827.6,102.4 827.3,102.1L813.2,88C812.6,87.4 812.6,86.4 813.2,85.8C813.8,85.2 814.8,85.2 815.4,85.8L829.5,99.9C830.1,100.5 830.1,101.5 829.5,102.1C829.2,102.4 828.8,102.6 828.4,102.6Z" style="fill:#e00;fill-rule:nonzero;"/>
            </g>
            <g transform="matrix(1,0,0,1,-793.8,-59)">
                <path d="M814.2,102.6C813.8,102.6 813.4,102.4 813.1,102.1C812.5,101.5 812.5,100.5 813.1,99.9L827.2,85.8C827.8,85.2 828.8,85.2 829.4,85.8C830,86.4 830,87.4 829.4,88L815.3,102.1C815,102.4 814.6,102.6 814.2,102.6Z" style="fill:#e00;fill-rule:nonzero;"/>
            </g>
            <g transform="matrix(1,0,0,1,-793.8,-59)">
                <circle cx="821.3" cy="94" r="6.7" style="fill:#fff;"/>
            </g>
            <g transform="matrix(1,0,0,1,-793.8,-59)">
                <path d="M821.3,102.2C816.8,102.2 813.1,98.5 813.1,94C813.1,89.5 816.8,85.8 821.3,85.8C825.8,85.8 829.5,89.5 829.5,94C829.5,98.5 825.8,102.2 821.3,102.2ZM821.3,88.9C818.5,88.9 816.2,91.2 816.2,94C816.2,96.8 818.5,99.1 821.3,99.1C824.1,99.1 826.4,96.8 826.4,94C826.4,91.2 824.1,88.9 821.3,88.9Z" style="fill:#e00;fill-rule:nonzero;"/>
            </g>
        </g>
    </g>
</svg>
