<?xml version="1.0" encoding="UTF-8" standalone="no"?>
<!DOCTYPE svg PUBLIC "-//W3C//DTD SVG 1.1//EN" "http://www.w3.org/Graphics/SVG/1.1/DTD/svg11.dtd">
<svg width="100%" height="100%" viewBox="0 0 763 763" version="1.1" xmlns="http://www.w3.org/2000/svg" xmlns:xlink="http://www.w3.org/1999/xlink" xml:space="preserve" xmlns:serif="http://www.serif.com/" style="fill-rule:evenodd;clip-rule:evenodd;stroke-linejoin:round;stroke-miterlimit:2;">
    <g transform="matrix(2.66514,0,0,3.42036,170.825,40.4235)">
        <rect x="-64.181" y="-11.818" width="286.373" height="223.076" style="fill:white;"/>
    </g>
    <g transform="matrix(13.0208,0,0,13.0208,0,0)">
        <g>
            <g transform="matrix(1.26006,0,0,1.26006,-449.069,-58.4934)">
                <path d="M394.13,83.56L365,83.56C364.451,83.56 364,83.109 364,82.56L364,69.56C364,69.011 364.451,68.56 365,68.56L394.18,68.56C394.729,68.56 395.18,69.011 395.18,69.56L395.18,82.561C395.18,83.11 394.729,83.561 394.18,83.561C394.163,83.561 394.147,83.561 394.13,83.56ZM365.96,81.56L393.12,81.56L393.12,70.59L366,70.59L365.96,81.56Z" style="fill:rgb(237,28,36);fill-rule:nonzero;"/>
            </g>
            <g transform="matrix(1.26006,0,0,1.26006,-449.069,-58.4934)">
                <path d="M390.89,67.35C390.341,67.35 389.89,66.899 389.89,66.35L389.89,64.11L369.21,64.11L369.21,66.33C369.21,66.879 368.759,67.33 368.21,67.33C367.661,67.33 367.21,66.879 367.21,66.33L367.21,63.09C367.21,62.541 367.661,62.09 368.21,62.09L390.91,62.09C391.459,62.09 391.91,62.541 391.91,63.09L391.91,66.35C391.91,66.899 391.459,67.35 390.91,67.35L390.89,67.35Z" style="fill-rule:nonzero;"/>
            </g>
            <g transform="matrix(1.26006,0,0,1.26006,-449.069,-58.4934)">
                <path d="M387.64,60.86C387.091,60.86 386.64,60.409 386.64,59.86L386.64,57.62L372.45,57.62L372.45,59.85C372.45,60.399 371.999,60.85 371.45,60.85C370.901,60.85 370.45,60.399 370.45,59.85L370.45,56.61C370.45,56.061 370.901,55.61 371.45,55.61L387.65,55.61C388.199,55.61 388.65,56.061 388.65,56.61L388.65,59.86C388.65,60.409 388.199,60.86 387.65,60.86L387.64,60.86Z" style="fill-rule:nonzero;"/>
            </g>
            <g transform="matrix(1.26006,0,0,1.26006,-449.069,-58.4934)">
                <path d="M371.44,78.69C371.171,78.694 370.911,78.59 370.72,78.4L369.1,76.78C368.908,76.59 368.8,76.33 368.8,76.06C368.8,75.503 369.258,75.045 369.815,75.045C370.083,75.045 370.34,75.151 370.53,75.34L371.44,76.25L374,73.72C374.19,73.531 374.447,73.425 374.715,73.425C375.272,73.425 375.73,73.883 375.73,74.44C375.73,74.71 375.622,74.97 375.43,75.16L372.19,78.4C371.992,78.597 371.719,78.703 371.44,78.69Z" style="fill-rule:nonzero;"/>
            </g>
            <g transform="matrix(1.26006,0,0,1.26006,-449.069,-58.4934)">
                <path d="M389.27,75.45L379.54,75.45C378.991,75.45 378.54,74.999 378.54,74.45C378.54,73.901 378.991,73.45 379.54,73.45L389.27,73.45C389.819,73.45 390.27,73.901 390.27,74.45C390.27,74.999 389.819,75.45 389.27,75.45Z" style="fill-rule:nonzero;"/>
            </g>
            <g transform="matrix(1.26006,0,0,1.26006,-449.069,-58.4934)">
                <path d="M386,78.69L379.52,78.69C378.971,78.69 378.52,78.239 378.52,77.69C378.52,77.141 378.971,76.69 379.52,76.69L386,76.69C386.549,76.69 387,77.141 387,77.69C387,78.239 386.549,78.69 386,78.69Z" style="fill-rule:nonzero;"/>
            </g>
        </g>
    </g>
</svg>
